<?xml version="1.0" standalone="no"?>
<!DOCTYPE svg PUBLIC "-//W3C//DTD SVG 20010904//EN"
 "http://www.w3.org/TR/2001/REC-SVG-20010904/DTD/svg10.dtd">
<svg version="1.0" xmlns="http://www.w3.org/2000/svg"
 width="879.000000pt" height="879.000000pt" viewBox="0 0 879.000000 879.000000"
 preserveAspectRatio="xMidYMid meet">
<metadata>
Created by potrace 1.14, written by Peter Selinger 2001-2017
</metadata>
<g transform="translate(0.000000,879.000000) scale(0.100000,-0.100000)"
fill="#000000" stroke="none">
<path d="M4355 8783 c-505 -62 -948 -371 -1174 -818 -68 -135 -127 -326 -148
-475 -10 -71 -10 -340 -1 -405 60 -399 262 -753 563 -983 129 -99 314 -281
466 -458 157 -183 357 -478 518 -764 44 -77 221 -432 255 -510 16 -36 37 -83
47 -105 26 -59 111 -267 148 -365 18 -47 39 -101 46 -120 20 -51 85 -236 85
-243 0 -3 5 -18 12 -34 6 -15 12 -32 14 -38 1 -5 13 -44 27 -85 72 -216 201
-663 272 -935 41 -161 44 -169 49 -193 3 -9 23 -91 46 -182 23 -91 43 -172 45
-180 10 -45 88 -354 119 -472 46 -174 74 -248 142 -377 214 -406 592 -685
1057 -782 115 -24 367 -34 477 -18 36 5 82 12 102 15 115 16 334 94 457 161
719 396 995 1275 627 1999 -52 104 -118 201 -234 346 -45 56 -86 108 -90 113
-4 6 -43 57 -87 115 -43 58 -81 107 -85 110 -27 23 -668 901 -757 1036 -21 33
-41 61 -44 64 -13 10 -368 557 -414 637 -6 10 -41 70 -79 133 -38 63 -80 135
-94 160 -13 25 -32 59 -42 75 -68 116 -244 464 -310 615 -188 426 -298 788
-336 1105 -4 32 -11 189 -18 415 -5 145 -31 293 -72 419 -47 141 -158 350
-241 451 -43 53 -109 127 -133 150 -143 133 -238 200 -395 278 -116 59 -284
113 -391 128 -27 3 -53 9 -58 12 -10 6 -327 10 -371 5z"/>
<path d="M1370 2994 c-222 -33 -345 -68 -500 -143 -298 -144 -546 -388 -690
-680 -107 -216 -152 -401 -154 -636 -1 -181 6 -259 33 -373 35 -147 87 -276
171 -429 61 -110 230 -306 340 -394 224 -179 483 -290 760 -327 88 -11 359 -7
435 7 276 51 525 167 720 333 245 210 413 478 490 787 13 53 28 125 32 161 10
79 10 326 1 395 -32 231 -122 465 -252 654 -86 124 -203 248 -312 331 -32 25
-61 48 -64 51 -3 3 -43 28 -90 55 -164 96 -317 154 -500 190 -79 15 -358 27
-420 18z"/>
</g>
</svg>
